<svg xmlns="http://www.w3.org/2000/svg" width="135" height="30" viewBox="0 0 1800 400" fill="none">
    <g clip-path="url(#clip0_3006_2)">
        <g clip-path="url(#clip1_3006_2)">
            <path fill-rule="evenodd" clip-rule="evenodd"
                d="M256.992 345.152C243.059 359.062 224.537 366.73 204.841 366.73C185.172 366.73 166.65 359.075 152.704 345.152C137.8 330.271 119.062 321.739 99.6355 318.949V339.329C113.797 341.957 127.324 348.672 138.246 359.561V359.574C156.039 377.352 179.691 387.137 204.841 387.137C229.978 387.137 253.616 377.365 271.396 359.599C281.751 349.264 294.454 342.806 307.792 339.909V319.192C289.189 322.332 271.329 330.851 256.992 345.152Z"
                fill="currentColor"></path>
            <path fill-rule="evenodd" clip-rule="evenodd"
                d="M256.992 293.633C243.06 307.543 224.538 315.212 204.842 315.212C185.172 315.212 166.65 307.557 152.705 293.633C115.985 256.957 56.2334 256.984 19.5 293.633L33.9585 308.055C62.6998 279.345 109.477 279.345 138.246 308.041C156.039 325.82 179.691 335.619 204.842 335.619C229.979 335.619 253.617 325.847 271.397 308.096C300.178 279.372 346.97 279.386 375.726 308.096L390.168 293.659C353.463 257.011 293.725 257.011 256.992 293.633Z"
                fill="currentColor"></path>
            <path fill-rule="evenodd" clip-rule="evenodd"
                d="M205.504 121.289L130.715 161.591L130.512 82.403L156.797 82.3355L254.01 82.0795L280.281 81.9988L280.483 161.187L205.504 121.289ZM232.842 28.245L232.936 61.1469L177.748 61.2818L177.667 28.3932L232.842 28.245ZM301.543 172.401L301.246 60.9583L253.943 61.0928L253.807 7.20459L156.594 7.4606L156.729 61.3492L109.438 61.4704L109.736 172.9L65.7793 196.582L80.319 249.19C87.69 248.651 95.1014 248.988 102.405 250.228L90.4979 207.123L195.069 150.768L195.42 286.136L216.453 286.095L216.088 150.714L320.943 206.503L309.576 248.543C316.731 248.179 323.913 248.692 330.973 249.999L345.621 195.855L301.543 172.401Z"
                fill="currentColor"></path>
        </g>
        <path
            d="M1342.64 110.364H1382.46L1435.79 240.53H1437.9L1491.23 110.364H1531.05V290H1499.82V166.588H1498.16L1448.51 289.474H1425.18L1375.54 166.325H1373.87V290H1342.64V110.364ZM1571.45 110.364L1611.01 176.148H1612.41L1652.14 110.364H1689.25L1633.9 200.182L1690.12 290H1652.41L1612.41 224.654H1611.01L1571.01 290H1533.47L1590.22 200.182L1534.17 110.364H1571.45Z"
            fill="currentColor"></path>
        <path
            d="M495.701 290V110.804H527.485V290H495.701ZM573.031 290V146.698H606.733L631.941 212.184L641.257 238.488H642.353L652.217 212.184L676.603 146.698H710.031V290H681.535V234.926C681.535 230.177 681.718 224.879 682.083 219.034C682.631 213.006 683.179 206.978 683.727 200.95C684.275 194.922 684.823 189.625 685.371 185.058H684.275L671.123 218.212L647.559 277.396H635.503L611.665 218.212L598.787 185.058H597.691C598.239 189.625 598.787 194.922 599.335 200.95C600.066 206.978 600.614 213.006 600.979 219.034C601.527 224.879 601.801 230.177 601.801 234.926V290H573.031ZM755.519 290V146.698H809.223C820.366 146.698 830.413 148.159 839.363 151.082C848.314 153.822 855.438 158.571 860.735 165.33C866.033 171.906 868.681 180.948 868.681 192.456C868.681 203.599 865.941 212.732 860.461 219.856C855.164 226.797 848.04 231.912 839.089 235.2C830.139 238.488 820.183 240.132 809.223 240.132H787.303V290H755.519ZM787.303 218.212H807.853C828.129 218.212 838.267 210.175 838.267 194.1C838.267 186.063 835.71 180.309 830.595 176.838C825.481 173.367 817.717 171.632 807.305 171.632H787.303V218.212ZM902.152 290V146.698H955.582C966.359 146.698 976.132 148.068 984.9 150.808C993.668 153.365 1000.61 157.932 1005.72 164.508C1011.02 170.901 1013.67 179.761 1013.67 191.086C1013.67 201.315 1011.02 209.901 1005.72 216.842C1000.43 223.783 993.485 228.989 984.9 232.46L1020.25 290H986.544L955.582 237.666H933.936V290H902.152ZM933.936 215.472H953.116C963.345 215.472 970.926 213.554 975.858 209.718C980.973 205.699 983.53 200.037 983.53 192.73C983.53 185.058 980.79 179.669 975.31 176.564C970.013 173.276 962.523 171.632 952.842 171.632H933.936V215.472ZM1110.66 293.288C1097.15 293.288 1085.09 290.274 1074.5 284.246C1064.08 278.218 1055.96 269.541 1050.11 258.216C1044.26 246.891 1041.34 233.465 1041.34 217.938C1041.34 202.046 1044.26 188.62 1050.11 177.66C1055.96 166.517 1064.08 158.023 1074.5 152.178C1085.09 146.333 1097.15 143.41 1110.66 143.41C1124.18 143.41 1136.15 146.333 1146.56 152.178C1156.97 158.023 1165.1 166.517 1170.94 177.66C1176.79 188.62 1179.71 202.046 1179.71 217.938C1179.71 233.465 1176.79 246.891 1170.94 258.216C1165.1 269.541 1156.97 278.218 1146.56 284.246C1136.15 290.274 1124.18 293.288 1110.66 293.288ZM1110.66 266.984C1121.81 266.984 1130.67 262.6 1137.24 253.832C1143.82 244.881 1147.11 232.917 1147.11 217.938C1147.11 202.777 1143.82 190.995 1137.24 182.592C1130.67 174.007 1121.81 169.714 1110.66 169.714C1099.52 169.714 1090.57 174.007 1083.81 182.592C1077.24 190.995 1073.95 202.777 1073.95 217.938C1073.95 232.917 1077.24 244.881 1083.81 253.832C1090.57 262.6 1099.52 266.984 1110.66 266.984ZM1236.09 290L1189.51 146.698H1222.66L1242.39 214.65C1244.58 222.687 1246.68 230.451 1248.69 237.94C1250.7 245.247 1252.89 252.919 1255.27 260.956H1256.36C1258.92 252.919 1261.11 245.247 1262.94 237.94C1264.77 230.451 1266.78 222.687 1268.97 214.65L1288.42 146.698H1320.21L1273.63 290H1236.09Z"
            fill="currentColor"></path>
    </g>
    <defs>
        <clipPath id="clip0_3006_2">
            <rect width="1800" height="400" fill="white"></rect>
        </clipPath>
        <clipPath id="clip1_3006_2">
            <rect width="567" height="567" fill="white" transform="translate(-75 -83)"></rect>
        </clipPath>
    </defs>
</svg>